<?xml version="1.0" encoding="UTF-8" standalone="no"?>
<!DOCTYPE svg PUBLIC "-//W3C//DTD SVG 1.1//EN" "http://www.w3.org/Graphics/SVG/1.1/DTD/svg11.dtd">
<svg width="100%" height="100%" viewBox="0 0 34 96" version="1.1" xmlns="http://www.w3.org/2000/svg" xmlns:xlink="http://www.w3.org/1999/xlink" xml:space="preserve" xmlns:serif="http://www.serif.com/" style="fill-rule:evenodd;clip-rule:evenodd;stroke-linejoin:round;stroke-miterlimit:2;">
    <g transform="matrix(0.1,0,0,-0.1,-100.737,117)">
        <path d="M1008,1138C1005,1120 1013,1013 1026,900C1040,772 1051,607 1054,460C1057,331 1059,224 1059,222C1062,207 1221,270 1252,297C1261,305 1286,318 1307,325C1335,335 1344,343 1342,356C1338,374 1230,511 1146,605C1121,633 1101,660 1100,667C1100,673 1128,700 1163,726C1197,753 1228,779 1232,786C1236,792 1262,812 1290,830C1336,859 1353,880 1332,880C1327,880 1318,890 1313,903C1285,961 1062,1170 1027,1170C1018,1170 1010,1157 1008,1138ZM1149,1020C1183,990 1229,941 1251,912L1291,860L1259,832C1191,775 1095,700 1089,700C1084,700 1064,872 1053,1029C1046,1115 1041,1115 1149,1020ZM1213,463C1261,408 1300,358 1300,352C1300,338 1238,303 1162,274C1108,254 1099,253 1104,266C1108,275 1106,288 1101,294C1093,304 1085,496 1089,575C1091,605 1091,605 1108,585C1117,573 1164,519 1213,463Z" style="fill-rule:nonzero;"/>
    </g>
</svg>
